<svg xmlns="http://www.w3.org/2000/svg" width="818" height="1279" viewBox="0 0 818 1279" font-family="Helvetica, Arial, 'Liberation Sans', 'DejaVu Sans', sans-serif" font-size="11">
<title>station_report.py</title>
<defs><marker id="arrow" viewBox="0 0 10 10" refX="10" refY="5" markerWidth="7" markerHeight="7" orient="auto-start-reverse"><path d="M0,0 L10,5 L0,10 z" fill="#222222"/></marker></defs>
<rect width="100%" height="100%" fill="#ffffff"/>
<rect x="206.0" y="285.0" width="572.0" height="651.0" rx="8" fill="#f4f8fd" stroke="#8a9bb5" stroke-width="1" stroke-dasharray="5 4"/>
<polyline points="370.0,100.0 370.0,115.0 370.0,115.0 370.0,130.0" fill="none" stroke="#222222" stroke-width="1.2" marker-end="url(#arrow)"/>
<polyline points="370.0,263.0 370.0,278.0 370.0,278.0 370.0,293.0" fill="none" stroke="#222222" stroke-width="1.2" marker-end="url(#arrow)"/>
<polyline points="370.0,345.0 370.0,360.0 370.0,360.0 370.0,375.0" fill="none" stroke="#222222" stroke-width="1.2" marker-end="url(#arrow)"/>
<polyline points="480.0,578.0 650.0,578.0 650.0,648.0" fill="none" stroke="#222222" stroke-width="1.2" marker-end="url(#arrow)"/><text x="486.0" y="592.0">Yes</text>
<polyline points="370.0,508.0 370.0,523.0 370.0,523.0 370.0,538.0" fill="none" stroke="#222222" stroke-width="1.2" marker-end="url(#arrow)"/>
<polyline points="370.0,618.0 370.0,677.0 370.0,677.0 370.0,736.0" fill="none" stroke="#222222" stroke-width="1.2" marker-end="url(#arrow)"/><text x="376.0" y="632.0">No</text>
<polyline points="370.0,854.0 370.0,869.0 370.0,869.0 370.0,884.0" fill="none" stroke="#222222" stroke-width="1.2" marker-end="url(#arrow)"/>
<polyline points="490.0,1017.0 540.0,1017.0" fill="none" stroke="#222222" stroke-width="1.2" marker-end="url(#arrow)"/>
<polyline points="490.0,1063.5 540.0,1063.5" fill="none" stroke="#222222" stroke-width="1.2" marker-end="url(#arrow)"/>
<polyline points="370.0,928.0 370.0,943.0 370.0,943.0 370.0,958.0" fill="none" stroke="#222222" stroke-width="1.2" marker-end="url(#arrow)"/><text x="376.0" y="942.0">done</text>
<polyline points="490.0,1146.5 540.0,1146.5" fill="none" stroke="#222222" stroke-width="1.2" marker-end="url(#arrow)"/>
<polyline points="370.0,1076.0 370.0,1100.5 370.0,1100.5 370.0,1125.0" fill="none" stroke="#222222" stroke-width="1.2" marker-end="url(#arrow)"/>
<polyline points="370.0,1168.0 370.0,1183.5 370.0,1183.5 370.0,1199.0" fill="none" stroke="#222222" stroke-width="1.2" marker-end="url(#arrow)"/>
<polyline points="650.0,706.0 650.0,718.0 670.0,718.0 670.0,906.0 500.0,906.0" fill="none" stroke="#222222" stroke-width="1.2" marker-end="url(#arrow)"/>
<polyline points="240.0,906.0 214.0,906.0 214.0,319.0 240.0,319.0" fill="none" stroke="#222222" stroke-width="1.2" marker-end="url(#arrow)"/><text x="224.0" y="612.5" text-anchor="middle" font-style="italic" transform="rotate(-90 224.0 612.5)">repeat</text>
<rect x="20.0" y="20.0" width="40.0" height="24.0" fill="#dae8fc" stroke="#222222" stroke-width="1.2"/>
<text x="70.0" y="36.0" text-anchor="start">station_utils.py</text>
<text x="370.0" y="36.0" text-anchor="middle">station_report.py</text>
<rect x="315.0" y="60.0" width="110.0" height="40.0" rx="20.0" fill="#ffffff" stroke="#222222" stroke-width="1.2"/><text x="370.0" y="84.0" text-anchor="middle">START</text>
<rect x="250.0" y="130.0" width="240.0" height="133.0" fill="#ffffff" stroke="#222222" stroke-width="1.2"/><text x="370.0" y="155.5" text-anchor="middle" font-weight="bold">Read and set</text><text x="370.0" y="170.5" text-anchor="middle">Read settings; set summaries_list =</text><text x="370.0" y="185.5" text-anchor="middle">[].</text><text x="370.0" y="200.5" text-anchor="middle">in: CONFIG_PATH: str</text><text x="370.0" y="215.5" text-anchor="middle">out: stations_list: list[str],</text><text x="370.0" y="230.5" text-anchor="middle">threshold_float: float, folder_str:</text><text x="370.0" y="245.5" text-anchor="middle">str</text>
<polygon points="256.0,293.0 484.0,293.0 500.0,309.0 500.0,345.0 240.0,345.0 240.0,309.0" fill="#ffffff" stroke="#222222" stroke-width="1.2"/><text x="370.0" y="315.5" text-anchor="middle">For each station_str in</text><text x="370.0" y="330.5" text-anchor="middle">stations_list</text>
<rect x="250.0" y="375.0" width="240.0" height="133.0" fill="#dae8fc" stroke="#222222" stroke-width="1.2"/><text x="370.0" y="400.5" text-anchor="middle" font-weight="bold">Load, repair and flag</text><text x="370.0" y="415.5" text-anchor="middle">Load station readings; repair</text><text x="370.0" y="430.5" text-anchor="middle">missing values; flag heat events.</text><text x="370.0" y="445.5" text-anchor="middle">in: station_str: str, folder_str:</text><text x="370.0" y="460.5" text-anchor="middle">str, threshold_float: float</text><text x="370.0" y="475.5" text-anchor="middle">out: flagged_df: pd.DataFrame,</text><text x="370.0" y="490.5" text-anchor="middle">event_count_int: int</text>
<polygon points="370.0,538.0 480.0,578.0 370.0,618.0 260.0,578.0" fill="#ffffff" stroke="#222222" stroke-width="1.2"/><text x="370.0" y="582.0" text-anchor="middle">event_count_int == 0?</text>
<rect x="530.0" y="648.0" width="240.0" height="58.0" fill="#ffffff" stroke="#222222" stroke-width="1.2"/><text x="650.0" y="673.5" text-anchor="middle">Print f&#x27;{station_str}: no heat</text><text x="650.0" y="688.5" text-anchor="middle">events&#x27;.</text>
<rect x="250.0" y="736.0" width="240.0" height="118.0" fill="#ffffff" stroke="#222222" stroke-width="1.2"/><text x="370.0" y="761.5" text-anchor="middle" font-weight="bold">Summarise and append</text><text x="370.0" y="776.5" text-anchor="middle">Summarise station; append</text><text x="370.0" y="791.5" text-anchor="middle">summary_dict to summaries_list.</text><text x="370.0" y="806.5" text-anchor="middle">in: flagged_df: pd.DataFrame,</text><text x="370.0" y="821.5" text-anchor="middle">station_str: str</text><text x="370.0" y="836.5" text-anchor="middle">out: summary_dict: dict</text>
<polygon points="240.0,884.0 500.0,884.0 500.0,912.0 484.0,928.0 256.0,928.0 240.0,912.0" fill="#ffffff" stroke="#222222" stroke-width="1.2"/><text x="370.0" y="910.0" text-anchor="middle">Next station_str</text>
<rect x="250.0" y="958.0" width="240.0" height="118.0" fill="#ffffff" stroke="#222222" stroke-width="1.2"/><text x="370.0" y="983.5" text-anchor="middle" font-weight="bold">Set and save</text><text x="370.0" y="998.5" text-anchor="middle">Set summary_df =</text><text x="370.0" y="1013.5" text-anchor="middle">pd.DataFrame(summaries_list); save</text><text x="370.0" y="1028.5" text-anchor="middle">as CSV; save the data.</text><text x="370.0" y="1043.5" text-anchor="middle">in: summary_df: DataFrame,</text><text x="370.0" y="1058.5" text-anchor="middle">summaries_list: list</text>
<polygon points="556.0,995.0 680.0,995.0 664.0,1039.0 540.0,1039.0" fill="#ffffff" stroke="#222222" stroke-width="1.2"/><text x="610.0" y="1021.0" text-anchor="middle">heat_summary.csv</text>
<polygon points="556.0,1051.0 680.0,1051.0 664.0,1095.0 540.0,1095.0" fill="#ffffff" stroke="#222222" stroke-width="1.2"/><text x="610.0" y="1077.0" text-anchor="middle">heat_summary.json</text>
<path d="M250.0,1125.0 H490.0 V1162.84 Q430.0,1152.52 370.0,1162.84 T250.0,1162.84 Z" fill="#ffffff" stroke="#222222" stroke-width="1.2"/><text x="370.0" y="1150.5" text-anchor="middle">Plot Hot hours per station.</text>
<path d="M540.0,1125.0 H680.0 V1163.72 Q645.0,1153.16 610.0,1163.72 T540.0,1163.72 Z" fill="#ffffff" stroke="#222222" stroke-width="1.2"/><text x="610.0" y="1151.0" text-anchor="middle">hot_hours.png</text>
<rect x="315.0" y="1199.0" width="110.0" height="40.0" rx="20.0" fill="#ffffff" stroke="#222222" stroke-width="1.2"/><text x="370.0" y="1223.0" text-anchor="middle">END</text>
</svg>
