<svg xmlns="http://www.w3.org/2000/svg" width="1340" height="1387" viewBox="0 0 1340 1387" font-family="Helvetica, Arial, sans-serif" font-size="11">
<title>station_report.py</title>
<defs><marker id="arrow" viewBox="0 0 10 10" refX="10" refY="5" markerWidth="7" markerHeight="7" orient="auto-start-reverse"><path d="M0,0 L10,5 L0,10 z" fill="#222222"/></marker></defs>
<rect width="100%" height="100%" fill="#ffffff"/>
<polyline points="370.0,100.0 370.0,115.0 370.0,115.0 370.0,130.0" fill="none" stroke="#222222" stroke-width="1.2" marker-end="url(#arrow)"/>
<polyline points="370.0,263.0 370.0,278.0 370.0,278.0 370.0,293.0" fill="none" stroke="#222222" stroke-width="1.2" marker-end="url(#arrow)"/>
<polyline points="370.0,336.0 370.0,351.0 370.0,351.0 370.0,366.0" fill="none" stroke="#222222" stroke-width="1.2" marker-end="url(#arrow)"/>
<polyline points="370.0,410.0 370.0,425.0 370.0,425.0 370.0,440.0" fill="none" stroke="#222222" stroke-width="1.2" marker-end="url(#arrow)"/>
<polyline points="370.0,558.0 370.0,573.0 370.0,573.0 370.0,588.0" fill="none" stroke="#222222" stroke-width="1.2" marker-end="url(#arrow)"/>
<polyline points="370.0,691.0 370.0,706.0 370.0,706.0 370.0,721.0" fill="none" stroke="#222222" stroke-width="1.2" marker-end="url(#arrow)"/>
<polyline points="480.0,924.0 650.0,924.0 650.0,994.0" fill="none" stroke="#222222" stroke-width="1.2" marker-end="url(#arrow)"/>
<text x="486.0" y="938.0">Yes</text>
<polyline points="370.0,854.0 370.0,869.0 370.0,869.0 370.0,884.0" fill="none" stroke="#222222" stroke-width="1.2" marker-end="url(#arrow)"/>
<polyline points="370.0,964.0 370.0,1015.5 370.0,1015.5 370.0,1067.0" fill="none" stroke="#222222" stroke-width="1.2" marker-end="url(#arrow)"/>
<text x="376.0" y="978.0">No</text>
<polyline points="370.0,1185.0 370.0,1200.0 370.0,1200.0 370.0,1215.0" fill="none" stroke="#222222" stroke-width="1.2" marker-end="url(#arrow)"/>
<polyline points="370.0,1273.0 370.0,1288.0 370.0,1288.0 370.0,1303.0" fill="none" stroke="#222222" stroke-width="1.2" marker-end="url(#arrow)"/>
<polyline points="990.0,104.0 990.0,119.0 990.0,119.0 990.0,134.0" fill="none" stroke="#222222" stroke-width="1.2" marker-end="url(#arrow)"/>
<polyline points="990.0,178.0 990.0,193.0 990.0,193.0 990.0,208.0" fill="none" stroke="#222222" stroke-width="1.2" marker-end="url(#arrow)"/>
<polyline points="1110.0,310.0 1160.0,310.0" fill="none" stroke="#222222" stroke-width="1.2" marker-end="url(#arrow)"/>
<polyline points="990.0,251.0 990.0,266.0 990.0,266.0 990.0,281.0" fill="none" stroke="#222222" stroke-width="1.2" marker-end="url(#arrow)"/>
<polyline points="1110.0,398.0 1160.0,398.0" fill="none" stroke="#222222" stroke-width="1.2" marker-end="url(#arrow)"/>
<polyline points="990.0,339.0 990.0,354.0 990.0,354.0 990.0,369.0" fill="none" stroke="#222222" stroke-width="1.2" marker-end="url(#arrow)"/>
<polyline points="1110.0,478.5 1160.0,478.5" fill="none" stroke="#222222" stroke-width="1.2" marker-end="url(#arrow)"/>
<polyline points="990.0,427.0 990.0,442.0 990.0,442.0 990.0,457.0" fill="none" stroke="#222222" stroke-width="1.2" marker-end="url(#arrow)"/>
<polyline points="990.0,500.0 990.0,515.5 990.0,515.5 990.0,531.0" fill="none" stroke="#222222" stroke-width="1.2" marker-end="url(#arrow)"/>
<polyline points="650.0,1037.0 650.0,1049.0 836.0,1049.0 836.0,156.0 860.0,156.0" fill="none" stroke="#222222" stroke-width="1.2" marker-end="url(#arrow)"/>
<rect x="20.0" y="20.0" width="40.0" height="24.0" fill="#dae8fc" stroke="#222222" stroke-width="1.2"/>
<text x="70.0" y="36.0" text-anchor="start">station_utils.py</text>
<text x="370.0" y="36.0" text-anchor="middle">station_report.py</text>
<rect x="315.0" y="60.0" width="110.0" height="40.0" rx="20.0" fill="#ffffff" stroke="#222222" stroke-width="1.2"/><text x="370.0" y="84.0" text-anchor="middle">START</text>
<rect x="250.0" y="130.0" width="240.0" height="133.0" fill="#ffffff" stroke="#222222" stroke-width="1.2"/><text x="370.0" y="155.5" text-anchor="middle" font-weight="bold">read_settings</text><text x="370.0" y="170.5" text-anchor="middle">Read the station list, heat</text><text x="370.0" y="185.5" text-anchor="middle">threshold and data folder.</text><text x="370.0" y="200.5" text-anchor="middle">in: CONFIG_PATH: str</text><text x="370.0" y="215.5" text-anchor="middle">out: stations_list: list[str],</text><text x="370.0" y="230.5" text-anchor="middle">threshold_float: float, folder_str:</text><text x="370.0" y="245.5" text-anchor="middle">str</text>
<rect x="250.0" y="293.0" width="240.0" height="43.0" fill="#ffffff" stroke="#222222" stroke-width="1.2"/><text x="370.0" y="318.5" text-anchor="middle">Set summaries_list.</text>
<polygon points="256.0,366.0 484.0,366.0 500.0,382.0 500.0,410.0 240.0,410.0 240.0,382.0" fill="#ffffff" stroke="#222222" stroke-width="1.2"/><text x="370.0" y="392.0" text-anchor="middle">for station_str in stations_list</text>
<rect x="250.0" y="440.0" width="240.0" height="118.0" fill="#dae8fc" stroke="#222222" stroke-width="1.2"/><text x="370.0" y="465.5" text-anchor="middle" font-weight="bold">load_station_readings</text><text x="370.0" y="480.5" text-anchor="middle">Load the hourly readings of one</text><text x="370.0" y="495.5" text-anchor="middle">station from its Parquet file.</text><text x="370.0" y="510.5" text-anchor="middle">in: station_str: str, folder_str:</text><text x="370.0" y="525.5" text-anchor="middle">str</text><text x="370.0" y="540.5" text-anchor="middle">out: readings_df: pd.DataFrame</text>
<rect x="250.0" y="588.0" width="240.0" height="103.0" fill="#dae8fc" stroke="#222222" stroke-width="1.2"/><text x="370.0" y="613.5" text-anchor="middle" font-weight="bold">repair_missing_values</text><text x="370.0" y="628.5" text-anchor="middle">Fill short gaps in temperature and</text><text x="370.0" y="643.5" text-anchor="middle">humidity by interpolation.</text><text x="370.0" y="658.5" text-anchor="middle">in: readings_df: pd.DataFrame</text><text x="370.0" y="673.5" text-anchor="middle">out: readings_df: pd.DataFrame</text>
<rect x="250.0" y="721.0" width="240.0" height="133.0" fill="#dae8fc" stroke="#222222" stroke-width="1.2"/><text x="370.0" y="746.5" text-anchor="middle" font-weight="bold">flag_heat_events</text><text x="370.0" y="761.5" text-anchor="middle">Mark hours above the heat threshold</text><text x="370.0" y="776.5" text-anchor="middle">and count the events.</text><text x="370.0" y="791.5" text-anchor="middle">in: readings_df: pd.DataFrame,</text><text x="370.0" y="806.5" text-anchor="middle">threshold_float: float</text><text x="370.0" y="821.5" text-anchor="middle">out: flagged_df: pd.DataFrame,</text><text x="370.0" y="836.5" text-anchor="middle">event_count_int: int</text>
<polygon points="370.0,884.0 480.0,924.0 370.0,964.0 260.0,924.0" fill="#ffffff" stroke="#222222" stroke-width="1.2"/><text x="370.0" y="928.0" text-anchor="middle">event_count_int == 0?</text>
<rect x="530.0" y="994.0" width="240.0" height="43.0" fill="#ffffff" stroke="#222222" stroke-width="1.2"/><text x="650.0" y="1019.5" text-anchor="middle">Print progress.</text>
<rect x="250.0" y="1067.0" width="240.0" height="118.0" fill="#ffffff" stroke="#222222" stroke-width="1.2"/><text x="370.0" y="1092.5" text-anchor="middle" font-weight="bold">summarise_station</text><text x="370.0" y="1107.5" text-anchor="middle">Compute the hot hours, peak and mean</text><text x="370.0" y="1122.5" text-anchor="middle">temperature of a station.</text><text x="370.0" y="1137.5" text-anchor="middle">in: flagged_df: pd.DataFrame,</text><text x="370.0" y="1152.5" text-anchor="middle">station_str: str</text><text x="370.0" y="1167.5" text-anchor="middle">out: summary_dict: dict</text>
<rect x="250.0" y="1215.0" width="240.0" height="58.0" fill="#ffffff" stroke="#222222" stroke-width="1.2"/><text x="370.0" y="1240.5" text-anchor="middle">Append summary_dict to</text><text x="370.0" y="1255.5" text-anchor="middle">summaries_list.</text>
<circle cx="370.0" cy="1325.0" r="22.0" fill="#ffffff" stroke="#222222" stroke-width="1.2"/><text x="370.0" y="1329.0" text-anchor="middle">A</text>
<circle cx="990.0" cy="82.0" r="22.0" fill="#ffffff" stroke="#222222" stroke-width="1.2"/><text x="990.0" y="86.0" text-anchor="middle">A</text>
<polygon points="860.0,134.0 1120.0,134.0 1120.0,162.0 1104.0,178.0 876.0,178.0 860.0,162.0" fill="#ffffff" stroke="#222222" stroke-width="1.2"/><text x="990.0" y="160.0" text-anchor="middle">for station_str in stations_list</text>
<rect x="870.0" y="208.0" width="240.0" height="43.0" fill="#ffffff" stroke="#222222" stroke-width="1.2"/><text x="990.0" y="233.5" text-anchor="middle">Compute summary_df with DataFrame.</text>
<rect x="870.0" y="281.0" width="240.0" height="58.0" fill="#ffffff" stroke="#222222" stroke-width="1.2"/><text x="990.0" y="306.5" text-anchor="middle">Save as CSV.</text><text x="990.0" y="321.5" text-anchor="middle">in: summary_df: DataFrame</text>
<polygon points="1176.0,288.0 1300.0,288.0 1284.0,332.0 1160.0,332.0" fill="#ffffff" stroke="#222222" stroke-width="1.2"/><text x="1230.0" y="314.0" text-anchor="middle">heat_summary.csv</text>
<rect x="870.0" y="369.0" width="240.0" height="58.0" fill="#ffffff" stroke="#222222" stroke-width="1.2"/><text x="990.0" y="394.5" text-anchor="middle">Save the data.</text><text x="990.0" y="409.5" text-anchor="middle">in: summaries_list: list</text>
<polygon points="1176.0,376.0 1300.0,376.0 1284.0,420.0 1160.0,420.0" fill="#ffffff" stroke="#222222" stroke-width="1.2"/><text x="1230.0" y="402.0" text-anchor="middle">heat_summary.json</text>
<path d="M870.0,457.0 H1110.0 V494.84 Q1050.0,484.52 990.0,494.84 T870.0,494.84 Z" fill="#ffffff" stroke="#222222" stroke-width="1.2"/><text x="990.0" y="482.5" text-anchor="middle">Plot Hot hours per station.</text>
<path d="M1160.0,457.0 H1300.0 V495.72 Q1265.0,485.16 1230.0,495.72 T1160.0,495.72 Z" fill="#ffffff" stroke="#222222" stroke-width="1.2"/><text x="1230.0" y="483.0" text-anchor="middle">hot_hours.png</text>
<rect x="935.0" y="531.0" width="110.0" height="40.0" rx="20.0" fill="#ffffff" stroke="#222222" stroke-width="1.2"/><text x="990.0" y="555.0" text-anchor="middle">END</text>
</svg>
